<svg version="1.1" xmlns="http://www.w3.org/2000/svg" viewBox="0 0 1099.140228873823 1014.1141847050405" width="1099.140228873823" height="1014.1141847050405">
  <!-- svg-source:excalidraw -->
  
  <defs>
    <style>
      @font-face {
        font-family: "Virgil";
        src: url("https://excalidraw.com/Virgil.woff2");
      }
      @font-face {
        font-family: "Cascadia";
        src: url("https://excalidraw.com/Cascadia.woff2");
      }
    </style>
  </defs>
  <rect x="0" y="0" width="1099.140228873823" height="1014.1141847050405" fill="#ffffff"></rect><g stroke-linecap="round" transform="translate(279.87393368089306 898.8641847050405) rotate(0 171.54168701171875 52.625)"><path d="M0.73 0.62 C75.06 -1.36, 146.76 -0.71, 344.2 -1.02 M0.14 -0.52 C114.26 0.27, 228 1.24, 342.92 -0.56 M344.6 1.22 C342.25 42.61, 345.43 82.39, 342.41 105.19 M343.35 -0.3 C342.79 31.21, 344.29 60.21, 343.56 104.51 M342.41 104.21 C228.87 106.02, 113.61 104.02, 1.03 106.05 M343.34 105.02 C249.15 107.64, 155.61 106.78, 0.29 105.89 M1.15 105.89 C-1.53 75.72, -1.53 44.12, 0.46 -1.89 M-0.25 104.88 C1.1 80.47, 0.98 54.28, 0.73 0.6" stroke="#000000" stroke-width="1" fill="none"></path></g><g transform="translate(509.4115460292039 28.725413162391902) rotate(359.98758905258944 149 22.5)"><text x="0" y="32" font-family="Virgil, Segoe UI Emoji" font-size="36px" fill="#000000" text-anchor="start" style="white-space: pre;" direction="ltr">OpenSustain.tech</text></g><g stroke-linecap="round" transform="translate(474.3490213224801 10.038627250613587) rotate(359.98758905258944 178.32890973002935 38.88526670921152)"><path d="M-0.08 0.19 C130.8 -1.88, 261.6 -0.61, 357.09 1.19 M0.53 -0.14 C87.38 -2.69, 174.91 -1.89, 356.9 -0.37 M356.91 -1.92 C358.28 21.18, 354.87 40, 358.49 77.41 M356.26 -0.1 C357.12 22.28, 357.65 45.51, 356 77.51 M357.89 77.99 C218.1 75.33, 81.43 76.33, 0.21 77.1 M356.36 77.53 C235.53 77.55, 115.02 77.76, -0.05 78.09 M1.63 79.28 C0.85 46.74, -2.13 15.04, -1.11 -1.41 M0.27 77.29 C-0.13 59.13, 1.18 39.5, 0.46 0.67" stroke="#000000" stroke-width="1" fill="none"></path></g><g stroke-linecap="round"><g transform="translate(660.0784681718418 89.71027053731572) rotate(0 -0.24500154621063075 49.51495363735464)"><path d="M-1.08 0.32 C-0.81 16.68, 0.22 81.87, 0.58 98.39 M0.56 -0.55 C0.77 15.93, -0.29 83.26, -0.27 99.58" stroke="#000000" stroke-width="1" fill="none"></path></g><g transform="translate(660.0784681718418 89.71027053731572) rotate(0 -0.24500154621063075 49.51495363735464)"><path d="M-9.76 71.62 C-9.19 78.61, -5.22 84.89, 0.23 101.03 M-11.07 70.98 C-6.38 81.38, -3.7 91.55, 0.41 99.53" stroke="#000000" stroke-width="1" fill="none"></path></g><g transform="translate(660.0784681718418 89.71027053731572) rotate(0 -0.24500154621063075 49.51495363735464)"><path d="M10.76 71.79 C6.92 78.55, 6.49 84.81, 0.23 101.03 M9.45 71.15 C6.62 81.51, 1.78 91.62, 0.41 99.53" stroke="#000000" stroke-width="1" fill="none"></path></g></g><g transform="translate(335.87390316331494 934.0307928796826) rotate(0 105 22.5)"><text x="0" y="32" font-family="Virgil, Segoe UI Emoji" font-size="36px" fill="#000000" text-anchor="start" style="white-space: pre;" direction="ltr">projects.csv</text></g><g stroke-linecap="round"><g transform="translate(636.8115853650409 256.40653257012787) rotate(0 0.05924611884427122 71.53264298135238)"><path d="M-0.55 1.16 C-0.78 24.78, -0.27 118.89, -0.41 142.34 M1.36 0.72 C0.9 23.91, -1.2 116.64, -1.24 140.36" stroke="#000000" stroke-width="1" fill="none"></path></g><g transform="translate(636.8115853650409 256.40653257012787) rotate(0 0.05924611884427122 71.53264298135238)"><path d="M-9.18 112.41 C-6.74 121.63, -3.76 132.17, -0.34 139.02 M-11.39 112.02 C-7.92 118.38, -5.78 127.15, -1.39 140.23" stroke="#000000" stroke-width="1" fill="none"></path></g><g transform="translate(636.8115853650409 256.40653257012787) rotate(0 0.05924611884427122 71.53264298135238)"><path d="M11.34 112.69 C5.93 121.71, 1.07 132.14, -0.34 139.02 M9.13 112.3 C7.36 118.6, 4.26 127.3, -1.39 140.23" stroke="#000000" stroke-width="1" fill="none"></path></g></g><g stroke-linecap="round" transform="translate(10 454.81350336749256) rotate(0 111.20831298828125 41.708343505859375)"><path d="M1.71 -0.09 C77.75 -3, 155.87 -2.02, 222.08 -1.35 M0.75 0.7 C55 -0.01, 111.27 0.16, 222.22 0.52 M221.69 1.83 C223.07 25.45, 222.98 56.3, 220.77 84.14 M223.16 -0.98 C221.17 21.9, 222.7 42.11, 222.23 82.82 M222.61 84.55 C151.53 85.03, 83.82 83.04, -1.13 83.55 M223.27 83.74 C172.03 82.3, 121.56 82.3, -0.02 83.08 M0.51 85.2 C1.44 67.92, -0.01 48.28, -0.84 0.44 M-0.1 84.28 C0.36 61.56, 0.71 38.28, -0.26 0.2" stroke="#000000" stroke-width="1" fill="none"></path></g><g stroke-linecap="round" transform="translate(531.1291695961523 410.92632272586354) rotate(0 109.125 91.5)"><path d="M-1.02 1.69 C75.34 -0.23, 150.29 -2.05, 218.59 -1.49 M-0.11 -0.16 C62.96 1.36, 125.97 1.86, 218.5 -0.16 M217.48 -0.68 C219.33 60.47, 217.06 116.2, 218.87 183.42 M217.25 -0.84 C218.99 71.77, 218.87 145.57, 219.14 183.21 M217.34 184.1 C153.14 181.76, 87.22 180.77, -1.24 183.55 M218.16 182.84 C133.77 183.24, 47.21 184.06, 0.73 183.14 M1.71 181.56 C1.95 136.99, 2.78 88.48, -1.43 0.21 M0.41 182.55 C-0.32 138.95, -0.79 96.98, 0.29 -0.7" stroke="#000000" stroke-width="1" fill="none"></path></g><g stroke-linecap="round"><g transform="translate(236.09255923711248 500.6032084967576) rotate(0 144.10751467905573 0.9973313102856309)"><path d="M0.69 -1.12 C48.95 -0.61, 240.66 2.73, 288.62 3.11 M-0.41 0.91 C47.88 1.06, 240.13 1.22, 288.23 1.38" stroke="#000000" stroke-width="1" fill="none"></path></g><g transform="translate(236.09255923711248 500.6032084967576) rotate(0 144.10751467905573 0.9973313102856309)"><path d="M258.16 13.35 C267.44 10.67, 270.39 5.1, 289.03 1.26 M259.18 11.62 C268.07 8.74, 274.91 6.36, 287.52 0.61" stroke="#000000" stroke-width="1" fill="none"></path></g><g transform="translate(236.09255923711248 500.6032084967576) rotate(0 144.10751467905573 0.9973313102856309)"><path d="M258.2 -7.18 C267.49 -5.35, 270.43 -6.42, 289.03 1.26 M259.21 -8.9 C268.18 -6.52, 275 -3.63, 287.52 0.61" stroke="#000000" stroke-width="1" fill="none"></path></g></g><g stroke-linecap="round" transform="translate(517.5652964127613 192.18759260986243) rotate(0 138.52935528042718 28.45404931917227)"><path d="M-1.44 0.42 C70.49 -2.27, 143.47 -1.61, 277.09 -0.18 M-0.16 0.4 C100.36 0.29, 201.27 0.23, 276.92 0.49 M278.47 -1.67 C277.19 22.37, 275.35 46.95, 277.91 57.78 M276.89 -0.82 C276.62 13.4, 276.79 27.46, 277.65 57.04 M276.71 56.29 C217.2 56.65, 157.73 56.2, 1.36 56.55 M277.24 56.78 C180.37 58.01, 82.35 58.16, -0.49 56.45 M-1.17 55.61 C1.73 36.23, 1.76 15.2, 0.78 0.71 M0.29 57.53 C-0.04 42.04, 0.26 27.7, -0.84 0.03" stroke="#000000" stroke-width="1" fill="none"></path></g><g transform="translate(547.41556728685 196.90581831099766) rotate(0 104.5 22.5)"><text x="104.5" y="32" font-family="Virgil, Segoe UI Emoji" font-size="36px" fill="#000000" text-anchor="middle" style="white-space: pre;" direction="ltr">awesome2py</text></g><g transform="translate(721.1002952578542 126.7288663362896) rotate(0 57.5 12.5)"><text x="0" y="18" font-family="Virgil, Segoe UI Emoji" font-size="20px" fill="#000000" text-anchor="start" style="white-space: pre;" direction="ltr">README.md</text></g><g transform="translate(679.1578437720591 307.0083811468651) rotate(0 47.5 22.5)"><text x="0" y="32" font-family="Virgil, Segoe UI Emoji" font-size="36px" fill="#000000" text-anchor="start" style="white-space: pre;" direction="ltr">JSON</text></g><g transform="translate(565.8391876666865 479.92959240937955) rotate(0 74.5 22.5)"><text x="0" y="32" font-family="Virgil, Segoe UI Emoji" font-size="36px" fill="#000000" text-anchor="start" style="white-space: pre;" direction="ltr">pyGithub</text></g><g transform="translate(72.80773519080094 476.9762850250215) rotate(0 58 22.5)"><text x="0" y="32" font-family="Virgil, Segoe UI Emoji" font-size="36px" fill="#000000" text-anchor="start" style="white-space: pre;" direction="ltr">GitHub</text></g><g stroke-linecap="round" transform="translate(723.3902288738229 884.8952950622272) rotate(0 182.875 52.625)"><path d="M-1 -1.2 C103.19 0.98, 203.96 0.07, 365.03 -0.53 M0.44 0.47 C133.82 1.89, 268.26 2.08, 365.7 -0.12 M365.84 -0.32 C364.84 37.01, 364.5 72.52, 367.52 104.7 M366.56 0.63 C364.64 23.56, 364.73 45.15, 366.3 105.46 M366.98 104.62 C283.08 102.52, 198.36 102.39, -0.97 104.83 M366.34 105.68 C264.52 105.73, 162.13 105.96, -0.35 105.36 M-0.84 103.33 C0.85 77.19, -1.16 52.95, -0.68 -1.04 M0.3 104.9 C0.65 67.99, 1.1 32.16, -0.11 0.83" stroke="#000000" stroke-width="1" fill="none"></path></g><g transform="translate(754.4319158855417 925.0203026916217) rotate(0 139.5 22.5)"><text x="0" y="32" font-family="Virgil, Segoe UI Emoji" font-size="36px" fill="#000000" text-anchor="start" style="white-space: pre;" direction="ltr">organization.csv</text></g><g stroke-linecap="round"><g transform="translate(643.0985418621042 736.5203103210163) rotate(0 -92.78589206155516 77.0327063568352)"><path d="M0.03 0.69 C-31.09 26.33, -154.68 128.43, -185.6 154.06 M-1.41 0.01 C-32.24 25.23, -152.38 126.65, -183.24 152.05" stroke="#000000" stroke-width="1" fill="none"></path></g><g transform="translate(643.0985418621042 736.5203103210163) rotate(0 -92.78589206155516 77.0327063568352)"><path d="M-167.02 124.98 C-173.71 135.37, -179.05 145.78, -184.08 150.13 M-167.91 125.77 C-174.45 136.06, -179.62 144.31, -182.95 151.7" stroke="#000000" stroke-width="1" fill="none"></path></g><g transform="translate(643.0985418621042 736.5203103210163) rotate(0 -92.78589206155516 77.0327063568352)"><path d="M-153.87 140.74 C-165.79 144.91, -176.31 149.09, -184.08 150.13 M-154.76 141.52 C-166.02 145.98, -176.02 148.43, -182.95 151.7" stroke="#000000" stroke-width="1" fill="none"></path></g></g><g stroke-linecap="round"><g transform="translate(652.4320379558542 739.1870583678913) rotate(0 129.23369791113316 69.73953272812071)"><path d="M0.79 -0.84 C43.82 22.65, 215.76 116.9, 258.73 140.32 M-0.26 1.34 C42.62 24.54, 215.03 115.33, 258.08 138.62" stroke="#000000" stroke-width="1" fill="none"></path></g><g transform="translate(652.4320379558542 739.1870583678913) rotate(0 129.23369791113316 69.73953272812071)"><path d="M29.05 4.65 C21.6 2.99, 10.29 1.91, 0.5 -0.82 M30.56 3.71 C21.99 2.71, 13.95 2.08, 0.57 -0.44" stroke="#000000" stroke-width="1" fill="none"></path></g><g transform="translate(652.4320379558542 739.1870583678913) rotate(0 129.23369791113316 69.73953272812071)"><path d="M19.2 22.65 C15.23 14.72, 7.32 7.44, 0.5 -0.82 M20.71 21.71 C14.88 15.9, 9.46 10.46, 0.57 -0.44" stroke="#000000" stroke-width="1" fill="none"></path></g><g transform="translate(652.4320379558542 739.1870583678913) rotate(0 129.23369791113316 69.73953272812071)"><path d="M226.98 135.36 C239.95 136.33, 249.11 138.26, 257.79 138.64 M228.49 134.43 C235.73 135.74, 243.54 137.44, 257.86 139.02" stroke="#000000" stroke-width="1" fill="none"></path></g><g transform="translate(652.4320379558542 739.1870583678913) rotate(0 129.23369791113316 69.73953272812071)"><path d="M236.63 117.25 C246.19 124.52, 252.02 132.7, 257.79 138.64 M238.14 116.32 C242.7 122.47, 247.93 129.01, 257.86 139.02" stroke="#000000" stroke-width="1" fill="none"></path></g></g><g stroke-linecap="round" transform="translate(432.4319158855417 631.8536843444538) rotate(0 206 54)"><path d="M0.82 -0.08 C162.98 -1.35, 325.17 -0.85, 411.19 0.22 M-0.26 0.3 C134.81 1.95, 268.44 1.38, 411.79 0.47 M413.5 -1.73 C410.89 33.92, 412.54 67.89, 413.86 107.73 M411.5 0.66 C411.44 42.56, 411.47 83.28, 411.96 107.39 M411.26 109 C256.07 107.83, 99.1 108, 0.01 107.06 M411.57 108.34 C258.45 108.25, 105.87 108.26, -0.52 107.84 M-1.67 108.26 C1.82 65.58, 1.29 24.51, -1.48 -0.32 M-0.74 108.89 C-0.72 83.8, -0.28 57.96, 0.82 0.63" stroke="#000000" stroke-width="1" fill="none"></path></g><g transform="translate(531.7651678386667 669.8536233092975) rotate(0 119.5 22.5)"><text x="0" y="32" font-family="Virgil, Segoe UI Emoji" font-size="36px" fill="#000000" text-anchor="start" style="white-space: pre;" direction="ltr">PreProcessing</text></g><g stroke-linecap="round"><g transform="translate(643.0986639324167 595.8536233092975) rotate(0 0.7772879306972413 19.32653154209254)"><path d="M0.49 0.82 C0.7 7.09, -0.08 31.32, 0.17 37.51 M-0.71 0.21 C-0.06 6.58, 1.89 31.99, 2.27 38.44" stroke="#000000" stroke-width="1" fill="none"></path></g><g transform="translate(643.0986639324167 595.8536233092975) rotate(0 0.7772879306972413 19.32653154209254)"><path d="M-4.26 18.89 C-5.82 25.48, -3.42 29.8, 2.5 38.78 M-4.86 19.95 C-3.13 28.05, -0.46 33.89, 2.33 37.69" stroke="#000000" stroke-width="1" fill="none"></path></g><g transform="translate(643.0986639324167 595.8536233092975) rotate(0 0.7772879306972413 19.32653154209254)"><path d="M8.94 17.97 C4.62 24.81, 4.26 29.32, 2.5 38.78 M8.34 19.03 C5.15 27.58, 2.89 33.76, 2.33 37.69" stroke="#000000" stroke-width="1" fill="none"></path></g></g><g stroke-linecap="round" transform="translate(277.76522887382316 173.85362330929755) rotate(0 400.66671752929665 309.3333282470703)"><path d="M-0.66 0.27 C240.98 1.99, 481.76 2.43, 801.64 -0.22 M-0.38 -0.39 C223.13 -3.05, 446.36 -2.75, 801.27 0.01 M801.64 0.7 C802.22 234.54, 802.17 468.65, 800.89 618.12 M801.71 0.19 C803.94 131.52, 803.75 263.27, 801.23 618.71 M801.54 618.13 C624.32 618.08, 447.84 619.07, 0.4 618.9 M801.26 619.02 C545.04 618.21, 289.29 618.1, -0.16 618.56 M-0.53 618.18 C-2.8 404.5, -2.13 190.85, -0.24 0.57 M0.07 618.54 C-2.13 484.95, -1.89 351.56, 0.29 0.08" stroke="#000000" stroke-width="1" fill="none"></path></g><g transform="translate(825.7652899089792 202.8535622741413) rotate(0 122.5 17.5)"><text x="0" y="25" font-family="Virgil, Segoe UI Emoji" font-size="28px" fill="#000000" text-anchor="start" style="white-space: pre;" direction="ltr">AwesomeCure.ipynb</text></g><g transform="translate(846.0152492188753 795.1036360249557) rotate(0 50.50000000000006 17.5)"><text x="0" y="25" font-family="Virgil, Segoe UI Emoji" font-size="28px" fill="#000000" text-anchor="start" style="white-space: pre;" direction="ltr">Update</text></g><g transform="translate(350.5152492188753 813.4369566426315) rotate(0 51 17.5)"><text x="0" y="25" font-family="Virgil, Segoe UI Emoji" font-size="28px" fill="#000000" text-anchor="start" style="white-space: pre;" direction="ltr">Rewrite</text></g></svg>