<svg version="1.1" xmlns="http://www.w3.org/2000/svg" viewBox="0 0 805.4665635815722 978.7067115484303" width="805.4665635815722" height="978.7067115484303">
  <!-- svg-source:excalidraw -->
  
  <defs>
    <style>
      @font-face {
        font-family: "Virgil";
        src: url("https://excalidraw.com/Virgil.woff2");
      }
      @font-face {
        font-family: "Cascadia";
        src: url("https://excalidraw.com/Cascadia.woff2");
      }
    </style>
  </defs>
  <rect x="0" y="0" width="805.4665635815722" height="978.7067115484303" fill="#ffffff"></rect><g stroke-linecap="round" transform="translate(10 13.135569025137556) rotate(0 171.54168701171875 52.625)"><path d="M-1.12 -0.47 C101.76 2.53, 205.13 1.92, 343.88 -0.64 M0.01 -0.61 C69.25 0.97, 137.26 0.61, 342.63 0.52 M344.86 -1.89 C345.32 27.06, 344.43 51.76, 342.17 105.86 M343.01 0.17 C344.2 27.78, 343.17 56.33, 343.82 104.44 M343.73 106.23 C212.71 103.5, 84.4 103.98, -1.28 106.03 M343.03 105.56 C236.26 105.58, 128.31 105.74, 0.33 104.81 M1.05 104.42 C0.42 81.55, -0.2 54.09, 1.51 0.98 M-0.11 104.43 C0.55 65.82, 1.67 24.94, 0.67 0.41" stroke="#000000" stroke-width="1" fill="none"></path></g><g transform="translate(56.833251953125 35.802215346752064) rotate(0 105 22.5)"><text x="0" y="32" font-family="Virgil, Segoe UI Emoji" font-size="36px" fill="#000000" text-anchor="start" style="white-space: pre;" direction="ltr">projects.csv</text></g><g stroke-linecap="round" transform="translate(428.5162570459572 10) rotate(0 182.875 52.62499999999999)"><path d="M-0.35 0.93 C85.7 1.16, 170.5 0.2, 364.51 1.18 M0.52 -0.22 C90.28 1.56, 180.4 2.6, 365.45 0.43 M367.25 0.58 C367.3 29.38, 365.77 61.76, 365.19 106.71 M366.1 -0.87 C365 37.83, 366.42 76.77, 366.52 105.28 M364.79 104.62 C273.45 106.76, 179.89 107.69, 0.16 106.34 M366.2 105.14 C248.64 106.36, 132.18 105.9, -0.36 104.81 M-0.33 107.06 C-1.5 79.63, 0.95 55.27, 1.61 -1.31 M-0.14 105.88 C1.09 68.85, 0.78 33.25, -0.24 0.18" stroke="#000000" stroke-width="1" fill="none"></path></g><g transform="translate(472.05794405767597 44.29168701171875) rotate(0 139.5 22.5)"><text x="0" y="32" font-family="Virgil, Segoe UI Emoji" font-size="36px" fill="#000000" text-anchor="start" style="white-space: pre;" direction="ltr">organization.csv</text></g><g stroke-linecap="round" transform="translate(12.133128522978495 187.52610513024456) rotate(0 391.6667175292969 297.5)"><path d="M0.15 0.34 C216.37 -0.61, 432.29 -0.97, 783.28 0.12 M-0.32 0 C251.32 -0.35, 502.74 0.31, 783.68 -0.39 M783.93 -0.29 C783.9 191.84, 784.03 385, 783.96 594.46 M783.39 0.24 C784.44 183.96, 784.15 368.34, 783.2 595.28 M784.06 595.58 C625.02 594.19, 466.46 595.29, -0.02 595.75 M783.16 594.97 C473.83 592.35, 164.69 592.6, 0.13 594.67 M0.28 594.86 C-1.87 440.77, -2.29 287.54, 0 0.5 M0.18 594.92 C-0.98 448.91, -1.11 302.99, 0.08 0" stroke="#000000" stroke-width="1" fill="none"></path></g><g transform="translate(404.63312852297804 209.35945117923552) rotate(0 186 17.5)"><text x="0" y="25" font-family="Virgil, Segoe UI Emoji" font-size="28px" fill="#000000" text-anchor="start" style="white-space: pre;" direction="ltr">        OST_analysis.ipynb</text></g><g stroke-linecap="round" transform="translate(186.5221445684424 274.41503216610613) rotate(0 196.66667938232422 78.33333969116211)"><path d="M0.18 0.5 C146.15 1.99, 291.27 2.84, 394.09 -1.07 M-0.57 0.48 C106.73 1.68, 214.59 1.65, 393.64 -0.5 M392.65 0.79 C394.09 33.32, 395.88 70.17, 395.27 157.5 M394.1 0.35 C392.58 51.44, 391.39 101.45, 392.8 156.45 M392.9 155.89 C271.63 154.69, 148.86 154.85, -0.82 155.89 M393.6 156.92 C242.89 156.83, 93.23 155.9, -0.49 156.44 M-1.44 158.13 C1.09 96.28, 0.35 33.17, -0.1 -1.29 M-0.97 155.75 C-0.03 104.44, 0.01 53.71, 0.58 0.87" stroke="#000000" stroke-width="1" fill="none"></path></g><g transform="translate(204.8553507452002 320.4149940191335) rotate(0 181 45.5)"><text x="181" y="31.5" font-family="Virgil, Segoe UI Emoji" font-size="36px" fill="#000000" text-anchor="middle" style="white-space: pre;" direction="ltr">Filter Active </text><text x="181" y="77" font-family="Virgil, Segoe UI Emoji" font-size="36px" fill="#000000" text-anchor="middle" style="white-space: pre;" direction="ltr">and GitHub Projects</text></g><g stroke-linecap="round" transform="translate(186.52195383357912 471.08165432797136) rotate(0 196.66667938232422 58.33333969116211)"><path d="M-1.11 -0.13 C142.74 -2.47, 284.2 -0.56, 392.71 -1.14 M-0.16 0.3 C153.33 1.02, 307.29 0.67, 392.94 0.38 M392.72 -1.84 C393.03 25.24, 394.96 50.17, 394.87 117.43 M393.38 -0.69 C392.53 29.14, 393.15 57.26, 394.25 117.26 M393.29 116.84 C311.26 116.91, 227.2 117.08, -0.91 116.72 M393.15 117 C283.69 114.83, 175.39 114.69, 0.42 116.21 M1.46 115.68 C1.25 83.06, -1.97 48.8, -1.81 -1.76 M0.25 117.26 C0.17 80.17, -0.96 43.77, -0.82 -0.65" stroke="#000000" stroke-width="1" fill="none"></path></g><g transform="translate(233.3553507452002 516.9149940191335) rotate(0 131.5 22.5)"><text x="131.5" y="32" font-family="Virgil, Segoe UI Emoji" font-size="36px" fill="#000000" text-anchor="middle" style="white-space: pre;" direction="ltr">Score Projects</text></g><g stroke-linecap="round" transform="translate(183.188671362876 624.4149367986745) rotate(0 196.66667938232422 58.33333969116211)"><path d="M0.06 -0.9 C136.13 -2.08, 273.2 -1.97, 392.32 0.47 M0.44 0.3 C148.8 0.18, 297.41 -0.16, 393.72 0.49 M393.75 -0.75 C391.09 37.69, 394.09 73.4, 394.86 116.47 M394.15 -0.97 C393.81 46.57, 393.18 92.44, 393.02 116.56 M394.15 115.56 C291.91 119.44, 191.02 119.82, -0.47 116.18 M393.76 116.28 C237.05 115.26, 80.16 116.16, 0.38 116.76 M-0.24 118.12 C-0.13 77.8, 1.36 39.95, -0.37 -0.03 M-0.06 116.74 C-0.89 85.2, -1.21 51, 0.39 -0.72" stroke="#000000" stroke-width="1" fill="none"></path></g><g transform="translate(188.188671362876 660.2482764898366) rotate(0 191.5 22.5)"><text x="191.5" y="31" font-family="Virgil, Segoe UI Emoji" font-size="36px" fill="#000000" text-anchor="middle" style="white-space: pre;" direction="ltr">Create Plots</text></g><g stroke-linecap="round" transform="translate(179.14679361629396 863.4567115484303) rotate(0 227.3750457763672 52.625)"><path d="M0.16 0.35 C132.13 -1.54, 264.41 -0.75, 454.61 0.2 M-0.01 -0.1 C163.69 -0.05, 327.08 0.44, 454.49 0.47 M453.31 1.98 C454.45 23.39, 453.31 43.52, 453.11 105.81 M454.67 0.68 C454.49 31.85, 455.49 65.25, 453.9 105.15 M455.39 105.26 C345.46 104.08, 234.9 103.97, -0.69 106.01 M454.68 105.68 C293.19 103.89, 131.48 103.24, -0.17 105.17 M-1.78 104.31 C-0.71 82.23, 1.52 59.48, 1.16 0.72 M-0.64 104.39 C1.47 84.17, 0.04 62.8, -0.93 0.27" stroke="#000000" stroke-width="1" fill="none"></path></g><g transform="translate(220.02191568660646 899.4149177251882) rotate(0 189 22.5)"><text x="189" y="32" font-family="Virgil, Segoe UI Emoji" font-size="36px" fill="#000000" text-anchor="middle" style="white-space: pre;" direction="ltr">projects_analysis.csv</text></g><g stroke-linecap="round"><g transform="translate(189.8553507452002 127.74835278378191) rotate(0 87.32325914101216 72.43146888625809)"><path d="M0.43 1.05 C29.8 24.75, 146.32 119.29, 175.45 142.97 M-0.8 0.55 C28.52 24.36, 145.51 120.36, 174.73 144.31" stroke="#000000" stroke-width="1" fill="none"></path></g><g transform="translate(189.8553507452002 127.74835278378191) rotate(0 87.32325914101216 72.43146888625809)"><path d="M148.17 135.12 C152.55 136.99, 159.42 139.3, 175.52 143.53 M146.68 134.76 C157.74 138.46, 168.55 141.61, 173.79 144.25" stroke="#000000" stroke-width="1" fill="none"></path></g><g transform="translate(189.8553507452002 127.74835278378191) rotate(0 87.32325914101216 72.43146888625809)"><path d="M161.18 119.25 C162.59 124.9, 166.4 130.96, 175.52 143.53 M159.69 118.89 C165.68 128.85, 171.43 138.18, 173.79 144.25" stroke="#000000" stroke-width="1" fill="none"></path></g></g><g stroke-linecap="round"><g transform="translate(591.5220682744971 124.41499401913347) rotate(0 -107.86014826086353 75.28329985809513)"><path d="M-0.86 1.05 C-36.69 26.08, -179.91 124.26, -215.44 149 M0.89 0.56 C-35.1 25.81, -180.76 125.01, -216.61 150.01" stroke="#000000" stroke-width="1" fill="none"></path></g><g transform="translate(591.5220682744971 124.41499401913347) rotate(0 -107.86014826086353 75.28329985809513)"><path d="M-197.46 124.85 C-205.73 133.6, -209.53 137.26, -215.61 149.33 M-198.78 125.84 C-205.69 134.78, -212.84 143.9, -215.69 150.34" stroke="#000000" stroke-width="1" fill="none"></path></g><g transform="translate(591.5220682744971 124.41499401913347) rotate(0 -107.86014826086353 75.28329985809513)"><path d="M-185.82 141.75 C-197.01 145.95, -203.89 145.13, -215.61 149.33 M-187.15 142.74 C-198.53 145.28, -210.01 148.1, -215.69 150.34" stroke="#000000" stroke-width="1" fill="none"></path></g></g><g stroke-linecap="round"><g transform="translate(364.8553507452002 429.4149940191335) rotate(0 0.8657605536282063 24.116476969243962)"><path d="M-1.19 0.47 C-0.59 8.35, 2 39.67, 2.92 47.47 M0.39 -0.33 C0.85 7.66, 1.14 40.5, 1.76 48.56" stroke="#000000" stroke-width="1" fill="none"></path></g><g transform="translate(364.8553507452002 429.4149940191335) rotate(0 0.8657605536282063 24.116476969243962)"><path d="M-6.61 25.44 C-6.54 33.42, -4.64 38.56, 2.95 46.87 M-7.33 26.44 C-4.01 33.81, -1.89 42.18, 1.86 48.67" stroke="#000000" stroke-width="1" fill="none"></path></g><g transform="translate(364.8553507452002 429.4149940191335) rotate(0 0.8657605536282063 24.116476969243962)"><path d="M9.95 24.81 C5.95 32.77, 3.79 38.07, 2.95 46.87 M9.23 25.81 C6.61 33.37, 2.79 41.96, 1.86 48.67" stroke="#000000" stroke-width="1" fill="none"></path></g></g><g stroke-linecap="round"><g transform="translate(364.8553507452002 589.4149940191335) rotate(0 -1.315068089216993 16.495363332154227)"><path d="M0.22 -0.46 C-0.27 5.01, -2.55 27.6, -2.85 33.25 M-1.13 -1.75 C-1.27 3.89, -0.57 28.64, -0.75 34.75" stroke="#000000" stroke-width="1" fill="none"></path></g><g transform="translate(364.8553507452002 589.4149940191335) rotate(0 -1.315068089216993 16.495363332154227)"><path d="M-7.15 17.44 C-4.81 24.05, -2.75 30.03, -2.01 34.18 M-7 19.69 C-3.88 25.17, -2.46 30.17, -1.21 34.52" stroke="#000000" stroke-width="1" fill="none"></path></g><g transform="translate(364.8553507452002 589.4149940191335) rotate(0 -1.315068089216993 16.495363332154227)"><path d="M4.26 17.41 C3.11 24.05, 1.67 30.04, -2.01 34.18 M4.41 19.66 C3.66 25.17, 1.22 30.19, -1.21 34.52" stroke="#000000" stroke-width="1" fill="none"></path></g></g><g stroke-linecap="round"><g transform="translate(367.02986215354304 742.7483527837819) rotate(0 0.30396776565805794 60.63041350495996)"><path d="M1 0.53 C1.14 20.63, 0.3 100.02, 0.24 119.88 M0.06 -0.24 C0.15 20.15, -0.46 101.3, -0.4 121.5" stroke="#000000" stroke-width="1" fill="none"></path></g><g transform="translate(367.02986215354304 742.7483527837819) rotate(0 0.30396776565805794 60.63041350495996)"><path d="M-9.7 94.25 C-7.94 101.9, -5.76 105.46, 0.91 122.71 M-11.11 93.16 C-7.48 101.42, -5.5 110.3, -0.15 121" stroke="#000000" stroke-width="1" fill="none"></path></g><g transform="translate(367.02986215354304 742.7483527837819) rotate(0 0.30396776565805794 60.63041350495996)"><path d="M10.82 94.31 C7.46 102.12, 4.52 105.65, 0.91 122.71 M9.41 93.22 C7.04 101.48, 3.01 110.35, -0.15 121" stroke="#000000" stroke-width="1" fill="none"></path></g></g></svg>